PathFileType	4	(X/Y/Z)	/Users/visionmauri/4_3_2_f_1_Sports2D/4_3_2_f_1_Sports2D_px_person00.trc
DataRate	CameraRate	NumFrames	NumMarkers	Units	OrigDataRate	OrigDataStartFrame	OrigNumFrames
30.0	30.0	10	22	m	30.0	270	360
Frame#	Time	Hip			RHip			RKnee			RAnkle			RBigToe			RSmallToe			RHeel			LHip			LKnee			LAnkle			LBigToe			LSmallToe			LHeel			Neck			Head			Nose			RShoulder			RElbow			RWrist			LShoulder			LElbow			LWrist			
		X1	Y1	Z1	X2	Y2	Z2	X3	Y3	Z3	X4	Y4	Z4	X5	Y5	Z5	X6	Y6	Z6	X7	Y7	Z7	X8	Y8	Z8	X9	Y9	Z9	X10	Y10	Z10	X11	Y11	Z11	X12	Y12	Z12	X13	Y13	Z13	X14	Y14	Z14	X15	Y15	Z15	X16	Y16	Z16	X17	Y17	Z17	X18	Y18	Z18	X19	Y19	Z19	X20	Y20	Z20	X21	Y21	Z21	X22	Y22	Z22
270	9.025069637883009	593.9538632000387	878.353555670324	0.0	522.6747895206561	895.198910884665	0.0	494.37965591167637	1129.7765715123899	0.0	456.1655076600843	1401.433117815799	0.0	446.03010619371616	1515.7518690701093	0.0	410.79419722671923	1493.5634968194902	0.0	474.9307139141733	1451.3488839761812	0.0	666.3938549634862	895.1007815282051	0.0	671.233417614108	1166.6165156967859	0.0	639.5797627232739	1425.2990906724249	0.0	698.9734466187984	1539.259255660598	0.0	722.669989385633	1524.7376638145681	0.0	612.4964131260836	1465.783515732269	0.0	563.1809313493143	495.2305196336268	0.0	543.5219269848106	341.9582793924504	0.0	540.1783733380197	469.762110403273	0.0	440.5770728194259	554.8464518912933	0.0	376.8334585131376	738.2638239135447	0.0	296.4425039611385	872.3737673225125	0.0	696.198819652123	521.7677047903405	0.0	772.0428456640711	686.6501731150165	0.0	806.2102634250614	841.803893509564	0.0
271	9.05849582172702	596.9793386174433	876.5259799362174	0.0	526.021906307227	890.4892680928546	0.0	496.2230853550397	1127.3279472655959	0.0	458.31324140505325	1399.3462248313356	0.0	449.2420280458585	1515.305768622054	0.0	412.3390431865039	1494.4218985096147	0.0	474.2372003014996	1449.734985793151	0.0	670.1995267024304	890.3239254099396	0.0	673.2554602480446	1163.317805731215	0.0	640.1851571787093	1425.6003433205174	0.0	699.5982927303224	1538.9553346472123	0.0	723.0727374759529	1524.660797323109	0.0	612.8935586346818	1465.299765327551	0.0	570.2192798963287	494.81876979613253	0.0	552.1893260580473	331.5008174882204	0.0	552.8046187381807	462.8626623858746	0.0	445.4890400428655	551.2513422376586	0.0	379.73286587296536	733.8104187940513	0.0	297.09033191142646	871.9957947338937	0.0	703.6968952351829	518.2792705497342	0.0	778.0861831386188	686.6311580614516	0.0	807.8991777964376	840.4565909284596	0.0
272	9.091922005571032	599.0102863169755	874.0584407860882	0.0	528.3126671038209	886.3585573298583	0.0	497.3102584373467	1123.3362419684217	0.0	461.3800613029328	1398.6763965164512	0.0	451.34733851076487	1514.4734446893149	0.0	413.4740033223095	1493.0388808782661	0.0	474.3739893925987	1449.867493624067	0.0	673.1887219080511	886.234036030523	0.0	673.8224167425885	1161.0149551383063	0.0	640.4741986452364	1426.5764964228597	0.0	699.4672542888388	1538.5160296556269	0.0	723.361617109412	1523.9574593244	0.0	613.1797545856372	1465.0477467870778	0.0	576.5226717716431	492.08402365891334	0.0	560.6025654714199	324.39545280388535	0.0	569.2570294017844	458.3747234978857	0.0	450.92571265291275	546.1071371224566	0.0	383.76633795013964	727.7488094124365	0.0	297.70475115733063	871.5248945146968	0.0	709.48863602344	513.2107658073818	0.0	784.2186502443003	686.5745499571632	0.0	810.0124103631292	839.8268066339439	0.0
273	9.125348189415043	601.171002126951	871.9622989027907	0.0	530.4878161749455	883.9969276826259	0.0	498.77584962963226	1119.5446134260112	0.0	463.4845227821977	1399.565051227059	0.0	450.4639301932955	1513.868827675265	0.0	413.5381199603775	1489.868741449756	0.0	477.0876271467787	1452.8162388842104	0.0	675.4372943839952	884.7676635293958	0.0	672.7483891752357	1159.799246857971	0.0	640.6173892560939	1427.441211017552	0.0	698.1660321689665	1537.9523140322733	0.0	723.3118374474996	1523.2492229700865	0.0	613.8052169414603	1465.070078618464	0.0	582.6929587140672	487.7322674590026	0.0	567.1472817362426	321.03535212207777	0.0	578.7895743940334	454.74247249282865	0.0	457.15389838855634	541.1283417771908	0.0	388.3529642106366	724.0180612876981	0.0	298.1554682900458	870.9356013533464	0.0	715.8448309037777	510.27692062461483	0.0	791.602615462826	687.5671676618059	0.0	813.4300481312561	840.7698104393392	0.0
274	9.158774373259053	603.9631181994038	868.7554170599884	0.0	532.329555000801	879.6540414371343	0.0	499.619950600288	1114.9075210897834	0.0	463.23469402215323	1400.318041280384	0.0	447.97520125501137	1513.6875436261662	0.0	413.83430450449947	1489.2562584549257	0.0	480.894859191354	1455.1717254305452	0.0	676.980920604247	882.6741909571775	0.0	671.2823769588599	1158.055698535618	0.0	641.2712969838633	1427.4498070774396	0.0	695.8407672541116	1537.2227499668732	0.0	723.1989640604706	1523.2485437015555	0.0	615.2647151601548	1465.1237279629079	0.0	589.336391802747	483.93229271354704	0.0	572.4779387622044	319.29794668304885	0.0	578.9562132804857	452.67040606830153	0.0	463.7378154394766	536.9304383492444	0.0	391.88648263185047	723.0753294931159	0.0	298.71548844520026	869.8688341415407	0.0	723.4579618797284	510.57911938467595	0.0	799.7943898691444	688.7792823994838	0.0	816.6620052987608	841.3671847884555	0.0
275	9.192200557103064	606.5841676438216	862.5225357081919	0.0	533.2582906508812	870.6750276530946	0.0	499.072553309939	1108.3650802859695	0.0	461.3362466182423	1399.857320374568	0.0	446.2228876361971	1513.9766390343475	0.0	414.62690015986135	1492.3485135562535	0.0	482.27065194716414	1457.0167137527849	0.0	678.0160453311847	876.7948244741748	0.0	670.3133269342259	1156.0924566887672	0.0	641.9038924496234	1427.06812995136	0.0	693.4771329216192	1536.653874144035	0.0	723.0692070488267	1523.748992637661	0.0	616.655095915673	1465.041017918035	0.0	596.3993082552903	481.192038057301	0.0	578.478173025142	318.5645843040611	0.0	576.0124814022755	452.7527333304565	0.0	470.8144766218852	532.5868634028383	0.0	393.68138397173806	723.0264862534738	0.0	299.218534829575	868.8504211660351	0.0	730.4626011110344	511.7831722660725	0.0	806.9916511683316	688.4655057134055	0.0	818.2431426655337	839.903059641321	0.0
276	9.225626740947076	608.0758311130227	855.2517886281954	0.0	533.4120093175457	862.1536668653218	0.0	497.84847598960005	1103.769074523787	0.0	459.3230632249411	1399.1056820130946	0.0	445.2424658576917	1515.3204228207096	0.0	414.00963206231893	1495.8435727465874	0.0	480.9197941312234	1466.7478272760695	0.0	679.2861324007785	870.5194151005289	0.0	669.3840318083973	1155.2132105730434	0.0	641.692300552717	1427.2619649926098	0.0	692.0451048450824	1536.387568505555	0.0	722.2344778392404	1523.9555502327726	0.0	616.7462813302395	1465.2181010360446	0.0	602.9011958022684	478.0734716795446	0.0	584.7000130714815	319.48861352387655	0.0	574.9545986674248	453.13903330160343	0.0	478.21256406051117	527.7238580796009	0.0	395.1512190687064	722.580565385693	0.0	299.0173055105405	868.6285355206251	0.0	735.6268552265591	512.0082275963392	0.0	812.1951197932656	687.1888758484102	0.0	819.5779373124273	838.0801759208264	0.0
277	9.259052924791087	608.3395666960441	851.2551099898543	0.0	533.212964081212	860.4269063955147	0.0	496.5917153488225	1105.0232461237968	0.0	458.25316985431766	1399.3694194693696	0.0	443.9608500463488	1517.8859100837738	0.0	410.8425994548366	1497.136800831849	0.0	480.09734987370757	1480.331552755376	0.0	680.603274837908	869.2346151267766	0.0	668.1155036458299	1155.3680694851867	0.0	641.1330556363279	1428.1190824050734	0.0	691.559914671683	1536.0715499421663	0.0	720.6162394769117	1523.5045839893537	0.0	615.7781327086269	1466.1775341478644	0.0	607.8886487093819	474.69037901067793	0.0	589.5671339348581	322.04630768250485	0.0	576.0676440898653	453.9292507805926	0.0	484.59304011090785	523.7200384093055	0.0	397.7243253881053	721.4718645706081	0.0	298.32975053203916	868.8237828593466	0.0	739.9924167035782	512.0587416534652	0.0	816.1989375148532	687.2040284070326	0.0	822.4480100827212	837.528700821954	0.0
278	9.292479108635098	607.9362905600528	851.7714935582314	0.0	532.9284978393646	863.6617432423553	0.0	495.52692923888964	1109.8737180550092	0.0	458.38352772680213	1401.471429942566	0.0	442.7435566475209	1520.1161203826246	0.0	406.72732645588513	1497.3803918893275	0.0	480.2513583484556	1449.5764821570494	0.0	680.6194526972969	872.617923949947	0.0	666.9420611716326	1156.2860897411556	0.0	640.8453303410022	1429.029568246983	0.0	691.4672238418624	1535.4789534501886	0.0	719.6165426920293	1522.7641852943868	0.0	614.6161169712374	1467.3372254208277	0.0	611.3806105614741	473.02217022544	0.0	593.385343169662	325.2204276205942	0.0	578.4335263180109	457.994706092873	0.0	488.82146376082864	522.0240766845928	0.0	400.47348268951293	719.8022435496762	0.0	298.57153309722725	868.6347833929241	0.0	744.9075962965212	513.3888285782858	0.0	820.2996266435231	689.233316067792	0.0	825.9350229620948	837.0998944285077	0.0
279	9.32590529247911	607.3991090405011	854.3815697024958	0.0	532.9960659651751	865.9697219824529	0.0	495.1186481087368	1114.2270527548367	0.0	460.3301366879244	1407.314429975228	0.0	443.7125037729404	1519.630237343702	0.0	405.28811440737877	1496.8660208909796	0.0	479.57626739073874	1319.15530734412	0.0	679.1496273114233	876.401303763935	0.0	666.1977249171058	1158.4684446267154	0.0	640.6349155089919	1429.495066189414	0.0	690.9421901527161	1534.950692292178	0.0	719.7190870021312	1522.2123754407232	0.0	613.8650280016197	1467.9394051063855	0.0	614.2023455185133	473.1857321483383	0.0	597.2928009788515	327.81484473541497	0.0	582.5833062227566	465.14362096453885	0.0	491.42489680181023	522.0922482400035	0.0	401.7626281618896	718.1032548334756	0.0	300.40271586807825	867.6757155785222	0.0	750.062067735343	515.4315069526259	0.0	824.4598586098662	691.765959081293	0.0	828.1486216893167	835.7692688559497	0.0
